<?xml version="1.0" standalone="no"?>
<!DOCTYPE svg PUBLIC "-//W3C//DTD SVG 20010904//EN"
 "http://www.w3.org/TR/2001/REC-SVG-20010904/DTD/svg10.dtd">
<svg version="1.0" xmlns="http://www.w3.org/2000/svg"
 width="360.000000pt" height="360.000000pt" viewBox="0 0 360.000000 360.000000"
 preserveAspectRatio="xMidYMid meet">
<metadata>
Created by potrace 1.14, written by Peter Selinger 2001-2017
</metadata>
<g transform="translate(0.000000,360.000000) scale(0.100000,-0.100000)"
fill="#000000" stroke="none">
<path d="M1697 3534 c-1 -1 -31 -5 -67 -8 -92 -8 -136 -14 -212 -31 -73 -16
-85 -19 -108 -28 -8 -3 -46 -15 -85 -27 -77 -25 -298 -127 -303 -141 -2 -5 -9
-9 -16 -9 -13 0 -50 -25 -176 -119 -138 -103 -185 -150 -337 -336 -9 -10 -35
-48 -57 -85 -22 -36 -44 -66 -48 -68 -5 -2 -8 -7 -8 -12 0 -4 -15 -35 -33 -67
-19 -32 -39 -72 -45 -88 -6 -17 -24 -63 -41 -104 -17 -40 -33 -83 -35 -96 -2
-13 -9 -33 -16 -44 -6 -12 -9 -21 -6 -21 2 0 -2 -23 -9 -52 -8 -28 -14 -54
-13 -57 0 -3 -1 -8 -2 -11 -4 -11 -10 -47 -16 -95 -3 -27 -8 -61 -10 -75 -13
-80 -3 -331 21 -480 49 -313 232 -668 465 -900 124 -124 176 -170 190 -170 5
0 10 -4 10 -10 0 -5 7 -10 15 -10 8 0 15 -4 15 -10 0 -5 6 -10 14 -10 8 0 16
-3 18 -7 2 -5 23 -21 48 -37 25 -16 56 -37 70 -46 14 -9 52 -29 85 -44 33 -15
69 -32 80 -38 40 -22 158 -68 177 -68 10 0 26 -4 36 -10 9 -5 44 -15 77 -22
33 -6 62 -12 65 -13 3 -1 20 -5 38 -9 63 -15 87 -17 282 -21 187 -5 229 -2
405 30 91 17 313 92 342 117 7 6 13 7 13 3 0 -4 6 -3 13 3 6 6 44 27 82 47 39
21 72 41 73 46 2 5 10 9 17 9 8 0 20 6 27 13 7 7 25 20 39 29 93 60 285 235
359 328 19 24 42 51 50 60 26 27 106 152 150 234 96 179 155 359 187 566 10
70 10 417 -1 490 -13 92 -33 181 -61 270 -33 103 -125 320 -137 320 -4 0 -8 6
-8 13 0 16 -60 111 -129 206 -63 87 -249 274 -341 342 -189 141 -408 243 -647
304 -98 24 -130 30 -233 41 -56 6 -258 12 -263 8z"/>
</g>
</svg>
